<svg xmlns="http://www.w3.org/2000/svg" width="320" height="300" viewBox="0 0 320 300"><rect width="320" height="300" fill="#fff"/><path d="M20 150 C40 42.57504569366574 60 53.63081666640937 50 197.690763277933 C70 193.78631525672972 90 154.71795907709748 80 140.55216880515218 C100 142.571179154329 120 92.78354090172797 110 155.3325603948906 C130 200.56085977703333 150 96.71942342538387 140 115.59483639430255 C160 208.0997750442475 180 154.0485600568354 170 119.71372601110488 C190 120.95089055132121 210 104.51441434212029 200 153.47395255230367 C220 105.19265461247414 240 255.14814298599958 230 124.75335942581296 C250 233.1115110218525 270 81.97417605668306 260 114.36573860701174 C280 74.02168663218617 300 104.00926688220352 290 154.79014315642416" fill="none" stroke="#111" stroke-width="2.5" stroke-linecap="round"/><path d="M30 270 Q160 230 300 275" fill="none" stroke="#111" stroke-width="5" stroke-linecap="round"/></svg>
