<svg xmlns="http://www.w3.org/2000/svg" width="300" height="300" viewBox="0 0 300 300"><rect width="300" height="300" fill="#fff"/><path d="M150 150 L154.00 150.65 L154.84 151.60 L155.46 152.84 L155.78 154.30 L155.75 155.92 L155.33 157.62 L154.51 159.32 L153.27 160.92 L151.62 162.34 L149.61 163.49 L147.26 164.29 L144.66 164.66 L141.88 164.54 L139.02 163.88 L136.17 162.66 L133.46 160.88 L130.98 158.53 L128.85 155.66 L127.17 152.33 L126.04 148.60 L125.55 144.57 L125.75 140.36 L126.69 136.08 L128.40 131.87 L130.88 127.86 L134.10 124.21 L138.01 121.03 L142.54 118.47 L147.58 116.64 L153.02 115.63 L158.71 115.53 L164.51 116.40 L170.24 118.25 L175.74 121.10 L180.83 124.91 L185.34 129.61 L189.12 135.13 L192.02 141.34 L193.91 148.10 L194.69 155.24 L194.30 162.59 L192.68 169.93 L189.83 177.06 L185.77 183.78 L180.57 189.88 L174.32 195.17 L167.16 199.46 L159.24 202.59 L150.76 204.44 L141.92 204.91 L132.96 203.92 L124.12 201.46 L115.64 197.53 L107.76 192.19 L100.73 185.53 L94.76 177.70 L90.05 168.86 L86.77 159.22 L85.06 149.01 L85.01 138.49 L86.68 127.94 L90.08 117.64 L95.17 107.86 L101.86 98.90 L110.03 91.02 L119.49 84.45 L130.04 79.42 L141.42 76.10 L153.35 74.62 L165.53 75.09 L177.64 77.54 L189.36 81.96 L200.36 88.29 L210.33 96.40 L218.99 106.14 L226.06 117.27 L231.32 129.55 L234.58 142.68 L235.72 156.32 L234.64 170.14 L231.32 183.77 L225.79 196.85 L218.15 209.01 L208.55 219.92 L197.20 229.26 L184.36 236.74 L170.33 242.13 L155.45 245.24 L140.10 245.94 L124.67 244.15 L109.56 239.87 L95.18 233.16 L81.92 224.13 L70.16 212.99 L60.22 199.98 L52.42 185.39 L47.00 169.59 L44.14 152.96 L43.98 135.92 L46.57 118.91 L51.90 102.37 L59.89 86.74 L70.36 72.46 L83.11 59.92 L97.83 49.48 L114.18 41.46 L131.76 36.10 L150.14 33.60 L168.86 34.07 L187.42 37.56 L205.34 44.03 L222.14 53.36 L237.37 65.35 L250.60 79.75 L261.45 96.22 L269.60 114.37 L274.80 133.74 L276.84 153.86 L275.64 174.22 L271.16 194.29" fill="none" stroke="#000" stroke-width="3" stroke-linecap="round" stroke-linejoin="round"/></svg>
